<?xml version="1.0" standalone="no"?>
<!DOCTYPE svg PUBLIC "-//W3C//DTD SVG 20010904//EN"
 "http://www.w3.org/TR/2001/REC-SVG-20010904/DTD/svg10.dtd">
<svg version="1.0" xmlns="http://www.w3.org/2000/svg"
 width="16.000000pt" height="16.000000pt" viewBox="0 0 16.000000 16.000000"
 preserveAspectRatio="xMidYMid meet">

<g transform="translate(0.000000,16.000000) scale(0.100000,-0.100000)"
fill="#000000" stroke="none">
<path d="M0 80 c0 -47 4 -80 10 -80 6 0 10 9 10 19 0 11 5 23 11 26 6 4 8 13
5 21 -8 22 16 54 40 54 30 0 37 -11 16 -26 -15 -11 -15 -16 -4 -35 13 -20 12
-21 -12 -17 -32 6 -35 -7 -4 -15 27 -7 40 9 33 41 -3 12 -2 22 3 22 4 0 9 -16
10 -37 3 -43 8 -53 28 -53 11 0 14 16 14 70 0 57 -3 70 -16 70 -8 0 -12 5 -9
10 4 6 -20 10 -64 10 l-71 0 0 -80z"/>
<path d="M55 90 c3 -5 8 -10 11 -10 2 0 4 5 4 10 0 6 -5 10 -11 10 -5 0 -7 -4
-4 -10z"/>
</g>
</svg>
