<?xml version="1.0" standalone="no"?><!DOCTYPE svg PUBLIC "-//W3C//DTD SVG 1.1//EN" "http://www.w3.org/Graphics/SVG/1.1/DTD/svg11.dtd"><svg t="1548055013346" class="icon" style="" viewBox="0 0 1024 1024" version="1.1" xmlns="http://www.w3.org/2000/svg" p-id="9778" data-spm-anchor-id="a313x.7781069.0.i30" xmlns:xlink="http://www.w3.org/1999/xlink" width="32" height="32"><defs><style type="text/css"></style></defs><path d="M510.993 276.211c1.508 0 3.018 0 4.525 0 28.658 2.011 49.269 23.126 78.429 52.287l358.962 359.466c9.552 9.552 9.552 25.639 0 35.191s-25.639 9.552-35.191 0l-359.465-359.465c-20.613-20.613-36.7-36.7-46.755-37.706-14.581-1.007-46.254 30.668-56.812 41.226l-355.444 355.444c-9.552 9.552-25.639 9.552-35.191 0s-9.552-25.639 0-35.191l355.444-355.444c34.188-34.188 61.839-55.805 91.501-55.805z" p-id="9779" fill="#ffffff"></path></svg>