<?xml version="1.0" standalone="no"?><!DOCTYPE svg PUBLIC "-//W3C//DTD SVG 1.1//EN" "http://www.w3.org/Graphics/SVG/1.1/DTD/svg11.dtd"><svg t="1545379454564" class="icon" style="" viewBox="0 0 1024 1024" version="1.1" xmlns="http://www.w3.org/2000/svg" p-id="11178" xmlns:xlink="http://www.w3.org/1999/xlink" width="16" height="16"><defs><style type="text/css"></style></defs><path d="M513 263.8c-194.7 0-349.3 153.9-349.3 347.7 0 193.8 154.6 347.7 349.3 347.7s349.3-153.9 349.3-347.7c0-193.8-154.6-347.7-349.3-347.7z m177.5 313.5l-68.7 68.4 17.2 96.9c5.7 34.2-11.5 45.6-40.1 28.5L513 725.6l-85.9 45.6c-28.6 17.1-45.8 0-40.1-28.5l17.2-96.9-68.7-68.4c-22.9-22.8-17.2-45.6 17.2-51.3l91.6-11.4 40.1-85.5c11.5-28.5 34.4-28.5 51.5 0l40.1 85.5 97.3 11.4c34.4 11.3 45.9 28.4 17.2 51.2z m171.8-473.1c5.7-5.7 5.7-11.4 5.7-11.4 0-11.4-11.5-22.8-22.9-22.8H627.5c-11.5 0-22.9 5.7-22.9 17.1l-68.7 125.4s143.2 5.7 229 91.2l97.4-199.5zM490.1 212.5L421.4 81.4c0-11.4-11.5-17.1-22.9-17.1H186.6c-17.2 0-28.6 11.4-28.6 22.8 0 5.7 0 11.4 5.7 11.4L261.1 298c85.9-74.1 229-85.5 229-85.5z" p-id="11179" fill="#757575"></path></svg>