<?xml version="1.0" standalone="no"?><!DOCTYPE svg PUBLIC "-//W3C//DTD SVG 1.1//EN" "http://www.w3.org/Graphics/SVG/1.1/DTD/svg11.dtd"><svg t="1546775864267" class="icon" style="" viewBox="0 0 1820 1024" version="1.1" xmlns="http://www.w3.org/2000/svg" p-id="5882" xmlns:xlink="http://www.w3.org/1999/xlink" width="85.3125" height="48"><defs><style type="text/css"></style></defs><path d="M366.364444 500.280889c80.327111 58.936889 166.115556 101.831111 257.137778 128.568889l-80.327111 230.4c-10.695111 42.894222 5.347556 85.788444 42.894222 101.831111 37.546667 16.156444 80.327111-5.347556 91.022223-48.241778l85.788444-257.137778c37.546667 5.347556 80.327111 5.347556 117.873778 5.347556 58.936889 0 117.873778-5.347556 171.463111-16.042667l96.483555 267.832889c16.042667 42.894222 53.475556 58.936889 91.022223 42.894222 37.546667-16.042667 53.589333-64.284444 42.894222-101.831111L1196.942222 607.573333a1064.96 1064.96 0 0 0 251.790222-139.377777l192.967112 209.009777c26.737778 32.199111 74.979556 32.199111 101.717333 0a88.746667 88.746667 0 0 0 0-112.526222l-182.044445-187.505778c42.780444-42.894222 80.327111-85.788444 123.107556-134.030222 26.851556-32.085333 21.504-80.327111-5.347556-112.526222-32.085333-26.737778-75.093333-26.737778-101.831111 5.347555a890.88 890.88 0 0 1-155.306666 160.768l-16.156445 16.156445c-155.306667 128.568889-326.769778 192.853333-519.736889 192.853333-262.599111 0-482.304-123.221333-669.809777-369.777778-26.737778-32.085333-69.632-37.546667-101.831112-10.695111-32.085333 26.851556-37.546667 75.093333-10.695111 112.64a1134.023111 1134.023111 0 0 0 150.072889 166.115556L77.027556 607.345778a88.746667 88.746667 0 0 0 0 112.526222c26.737778 32.199111 74.979556 32.199111 101.717333 0L366.364444 500.280889z" p-id="5883" fill="#bfbfbf"></path></svg>