<?xml version="1.0" standalone="no"?><!DOCTYPE svg PUBLIC "-//W3C//DTD SVG 1.1//EN" "http://www.w3.org/Graphics/SVG/1.1/DTD/svg11.dtd"><svg t="1545391700423" class="icon" style="" viewBox="0 0 1024 1024" version="1.1" xmlns="http://www.w3.org/2000/svg" p-id="14936" xmlns:xlink="http://www.w3.org/1999/xlink" width="32" height="32"><defs><style type="text/css"></style></defs><path d="M568.594973 698.895621c12.684904 0 22.986527-10.285251 22.986527-23.001877s-10.301623-23.001877-22.986527-23.001877l-97.830119 0c-12.684904 0-22.986527 10.285251-22.986527 23.001877s10.301623 23.001877 22.986527 23.001877L568.594973 698.895621z" p-id="14937" fill="#ec0022"></path><path d="M562.618864 711.643969l-85.879949 0c0 0-34.350342 137.396253-103.048981 137.396253l0 46.373167 291.976888 0L665.666822 849.040223C596.98251 849.040223 562.618864 711.643969 562.618864 711.643969z" p-id="14938" fill="#ec0022"></path><path d="M888.451838 144.689357 736.475518 144.689357c-1.324158-10.313903-2.311649-16.102746-2.311649-16.102746L305.207214 128.58661c0 0-0.99977 5.788843-2.323928 16.102746L150.907988 144.689357c0 0-40.802288 361.351931 207.354582 395.992893 25.698289 42.526559 61.171198 78.400604 110.193705 100.725052l102.430904 0c49.037856-22.324448 84.527139-58.19747 110.205984-100.725052C929.237753 506.042311 888.451838 144.689357 888.451838 144.689357zM182.776813 188.385555l115.689882 0c-5.836939 75.593675-6.91448 208.587666 40.584324 315.25301C289.426809 484.732983 174.417425 416.09779 182.776813 188.385555zM551.302121 519.837502l-51.314713 0L499.987409 343.609849l0-9.358135c0-12.474103-0.245593-20.817118-0.709151-25.190729-0.706081-6.927783-2.387373-12.069897-5.047969-15.425318-2.866281-3.38919-7.54586-5.761214-14.043854-7.208169-5.956665-1.230014-14.96483-1.816369-26.940582-1.816369l-7.192819 0 0-27.713178c18.215874-3.818979 33.688263-10.036587 46.38954-18.720364 12.025894-7.636934 22.986527-18.076704 32.839943-31.226189l26.019607 0L551.302121 519.837502zM700.308807 503.639588c47.495734-106.665345 46.421262-239.659335 40.584324-315.25301l115.689882 0C864.941378 416.09779 749.914598 484.732983 700.308807 503.639588z" p-id="14939" fill="#ec0022"></path></svg>