<?xml version="1.0" standalone="no"?><!DOCTYPE svg PUBLIC "-//W3C//DTD SVG 1.1//EN" "http://www.w3.org/Graphics/SVG/1.1/DTD/svg11.dtd"><svg t="1549089040043" class="icon" style="" viewBox="0 0 1024 1024" version="1.1" xmlns="http://www.w3.org/2000/svg" p-id="9234" xmlns:xlink="http://www.w3.org/1999/xlink" width="32" height="32"><defs><style type="text/css"></style></defs><path d="M151.467 204.373a34.133 34.133 0 0 1 48.213-48.213L531.627 488.107a34.133 34.133 0 0 1 0 48.213L199.68 868.267a34.133 34.133 0 0 1-48.213-48.214L459.093 512z m341.33300001 0a34.133 34.133 0 0 1 48.21299999-48.213l331.52 331.52a34.133 34.133 0 0 1 0 48.213L540.587 867.84a34.133 34.133 0 0 1-48.214-48.213L800.427 512z" p-id="9235" fill="#ec0022"></path></svg>