<?xml version="1.0" standalone="no"?><!DOCTYPE svg PUBLIC "-//W3C//DTD SVG 1.1//EN" "http://www.w3.org/Graphics/SVG/1.1/DTD/svg11.dtd"><svg t="1545379368647" class="icon" style="" viewBox="0 0 1097 1024" version="1.1" xmlns="http://www.w3.org/2000/svg" p-id="9735" xmlns:xlink="http://www.w3.org/1999/xlink" width="17.140625" height="16"><defs><style type="text/css"></style></defs><path d="M168.209798 658.212253H58.564892c-36.567347 0-58.564892 29.253878-58.564892 58.564892v241.40163c0 36.567347 21.940408 65.821225 58.564892 65.821225h109.702042c29.253878 0 51.194286-29.253878 51.194287-58.564892V716.720009c0-29.253878-21.940408-58.564892-51.194287-58.564892z" fill="#757575" p-id="9736"></path><path d="M146.26939 928.810624c0 14.626939-14.626939 21.940408-36.567348 21.940408s-36.567347-7.313469-36.567347-21.940408V753.287356c0-14.626939 14.626939-21.940408 36.567347-21.940408s36.567347 7.313469 36.567348 21.940408zM460.748577 438.808169h-109.702042c-36.567347 0-58.564892 29.253878-58.564892 58.564892v460.691441c0 36.567347 21.940408 65.821225 58.564892 65.821225h109.702042c29.253878 0 58.564892-29.253878 58.564892-58.564892V497.315925c-7.313469-29.253878-29.253878-58.564892-58.564892-58.564893z" fill="#757575" p-id="9737"></path><path d="M438.808169 928.810624c0 14.626939-14.626939 21.940408-36.567348 21.940408s-36.567347-7.313469-36.567347-21.940408V533.883272c0-14.626939 14.626939-21.940408 36.567347-21.940408s36.567347 7.313469 36.567348 21.940408zM1038.45553 365.673474h-109.702043c-36.567347 0-58.564892 29.253878-58.564892 58.564892v533.826136c0 36.567347 21.940408 65.821225 58.564892 65.821225H1038.45553c29.253878 0 58.564892-29.253878 58.564892-58.564892V424.238366c-7.313469-29.253878-29.253878-58.564892-58.564892-58.564892z" fill="#757575" p-id="9738"></path><path d="M1016.572258 928.810624c0 14.626939-14.626939 21.940408-36.567348 21.940408s-36.567347-7.313469-36.567347-21.940408V460.748577c0-14.626939 14.626939-21.940408 36.567347-21.940408s36.567347 7.313469 36.567348 21.940408zM753.287356 585.077558h-109.702042c-36.567347 0-58.564892 29.253878-58.564892 58.564893v314.422051c0 36.567347 21.940408 65.821225 58.564892 65.821225h109.702042c29.253878 0 51.194286-29.253878 51.194287-58.564892V643.585314c0-29.253878-21.940408-58.564892-51.194287-58.564892z" fill="#757575" p-id="9739"></path><path d="M731.346948 928.810624c0 14.626939-14.626939 21.940408-36.567348 21.940408s-36.567347-7.313469-36.567347-21.940408V680.152662c0-14.626939 14.626939-21.940408 36.567347-21.940409s36.567347 7.313469 36.567348 21.940409zM73.134695 599.704497l329.106126-285.225309L636.271845 475.375516c21.940408 29.253878 51.194286 7.313469 51.194286 0L1023.885727 117.015512V182.836737c0 21.940408 14.626939 36.567347 36.567347 36.567347S1097.020422 204.777145 1097.020422 182.836737V36.567347C1097.020422 14.626939 1082.393483 0 1060.453074 0H914.183685c-21.940408 0-36.567347 14.626939-36.567348 36.567347s14.626939 36.567347 36.567348 36.567348h51.194286l-307.108581 321.792657L424.238366 234.031023c-14.626939-14.626939-36.567347-14.626939-51.194286 0l-351.046535 307.108582c-14.626939 14.626939-14.626939 43.880817 0 58.564892 14.569802 7.370606 36.567347 7.370606 51.13715 0z" fill="#757575" p-id="9740"></path></svg>