<?xml version="1.0" standalone="no"?><!DOCTYPE svg PUBLIC "-//W3C//DTD SVG 1.1//EN" "http://www.w3.org/Graphics/SVG/1.1/DTD/svg11.dtd"><svg t="1545378770727" class="icon" style="" viewBox="0 0 1024 1024" version="1.1" xmlns="http://www.w3.org/2000/svg" p-id="7245" xmlns:xlink="http://www.w3.org/1999/xlink" width="16" height="16"><defs><style type="text/css"></style></defs><path d="M512 511.9c-96.6 0-175-78.3-175-175s78.4-175 175-175 175 78.4 175 175-78.4 175-175 175z m331.2 161.7c5.6 12.1 9.5 29.6 12.9 52.8 1.7 11.8 3.2 24.3 4.4 36.9 0.4 4.4 0.8 8.4 1.1 12.1 0.2 2.2 0.3 3.8 0.4 4.8l0.1 2.3c0 43.9-35.6 79.5-79.5 79.5H241.4c-43.9 0-79.5-35.7-79.5-79.5l0.1-2.3c0.1-0.9 0.2-2.5 0.4-4.8 0.3-3.7 0.7-7.7 1.1-12.1 1.2-12.5 2.7-25.1 4.4-36.9 3.4-23.2 7.3-40.7 12.9-52.8 24.5-53.1 204.5-129.9 331.2-129.9s306.7 76.8 331.2 129.9z" p-id="7246" fill="#757575"></path></svg>