<?xml version="1.0" standalone="no"?><!DOCTYPE svg PUBLIC "-//W3C//DTD SVG 1.1//EN" "http://www.w3.org/Graphics/SVG/1.1/DTD/svg11.dtd"><svg t="1546775931581" class="icon" style="" viewBox="0 0 1638 1024" version="1.1" xmlns="http://www.w3.org/2000/svg" p-id="6716" xmlns:xlink="http://www.w3.org/1999/xlink" width="76.78125" height="48"><defs><style type="text/css"></style></defs><path d="M1044.5824 353.5872a87.6544 87.6544 0 1 1-175.4112 0c0-48.5376 39.6288-88.064 88.064-88.064 6.144 0 11.5712 2.3552 17.6128 3.072A269.7216 269.7216 0 0 0 819.2 218.4192c-150.3232 0-271.6672 123.0848-271.6672 274.8416 0 151.04 121.344 273.92 271.6672 273.92 150.2208 0 271.6672-122.88 271.6672-273.92 0-56.32-17.6128-111.104-50.176-157.0816 1.6384 6.144 3.8912 11.4688 3.8912 17.408z m528.1792 113.152C1446.0928 234.496 1147.0848 0 819.2 0S192.3072 234.496 66.3552 466.7392L51.2 493.2608l15.1552 26.624C192.3072 751.2064 491.3152 986.5216 819.2 986.5216s626.8928-235.2128 753.664-466.6368l14.336-26.624-14.336-26.5216zM819.2 877.2608c-270.1312 0-526.0288-193.536-642.7648-384C293.0688 301.9776 548.9664 109.2608 819.2 109.2608c270.1312 0 525.9264 192.7168 642.7648 384-116.8384 190.464-372.6336 384-642.7648 384z" p-id="6717" fill="#bfbfbf"></path></svg>